<?xml version="1.0" standalone="no"?>
<!DOCTYPE svg PUBLIC "-//W3C//DTD SVG 1.1//EN" "http://www.w3.org/Graphics/SVG/1.1/DTD/svg11.dtd">
<svg xmlns="http://www.w3.org/2000/svg">
<defs >
<font id="Jost" horiz-adv-x="546" ><font-face
    font-family="Jost Thin"
    units-per-em="1000"
    panose-1="0 0 0 0 0 0 0 0 0 0"
    ascent="1070"
    descent="-375"
    alphabetic="0" />
<glyph unicode=" " horiz-adv-x="300" />
<glyph unicode="!" horiz-adv-x="254" d="M213 700L131 201H137L227 700H213ZM89 1Q89 -4 92 -7T100 -10Q104 -10 107 -7T111 1Q111 6 108 9T100 12Q95 12 92 9T89 1Z" />
<glyph unicode="&quot;" horiz-adv-x="391" d="M227 700L134 421H141L240 700H227ZM402 700L309 421H316L415 700H402Z" />
<glyph unicode="#" horiz-adv-x="554" d="M123 454H250H253H455H459H571L573 465H125L123 454ZM48 240H496L497 251H374H368H171H166H50L48 240ZM549 700L451 462L450 458L364 246L363 244L263 0H274L560 700H549ZM345 700L60 0L71 1L170 243V244L257 458L259
462L356 700H345Z" />
<glyph unicode="$" horiz-adv-x="562" d="M350 818L331 701H341L360 818H350ZM226 -2L208 -112H218L236 -2H226ZM484 548L494 550Q489 588 472 624T422 683T337 708Q291 708 249 688T179 632T145 550Q139 512 151 482T186 429T239 389T298 359Q335 343 367 318T418
258T430 175Q423 126 398 87T331 26T231 4Q173 4 139 33T87 107T62 197L52 193Q59 145 78 99T133 23T230 -7Q292 -8 336 16T406 83T440 175Q445 212 436 242T408 295T361 337T304 368Q275 381 246 397T195 436T161 486T156 550Q162 592 188 625T253 677T336 697Q384
696 414 674T461 618T484 548Z" />
<glyph unicode="%" horiz-adv-x="680" d="M102 561Q96 522 108 488T149 432T221 411Q265 410 301 430T360 485T390 560Q396 599 384 633T344 688T271 710Q227 710 191 690T132 635T102 561ZM112 560Q118 597 140 629T196 680T271 700Q311 699 337 679T375 628T380
560Q374 523 352 491T297 439T222 420Q181 420 155 440T117 493T112 560ZM356 141Q350 102 362 68T402 12T475 -9Q518 -10 554 10T613 65T644 140Q650 179 638 213T597 268T525 290Q481 290 445 270T386 215T356 141ZM366 140Q372 177 394 209T449 260T524 280Q565
279 591 259T628 208T634 140Q627 103 605 71T550 19T475 0Q434 0 408 20T371 73T366 140ZM649 699L85 0H97L661 699H649Z" />
<glyph unicode="&amp;" horiz-adv-x="655" d="M226 427L525 0H538L234 435Q221 455 211 476T196 521T195 576Q200 610 221 638T275 684T352 701Q391 700 416 681T451 633T456 574Q449 539 425 510T366 455T292 407Q265 393 235 378T174 344T117 301T72 246T48
173Q40 118 60 77T123 14T220 -9Q289 -10 345 21T449 101T540 206T625 310L617 316Q576 267 534 213T444 110T342 31T220 1Q168 1 129 22T70 82T58 173Q65 222 90 257T152 317T226 361T298 400Q329 418 357 437T408 476T446 521T466 574Q471 607 460 638T422 689T352
711Q307 711 272 693T214 645T185 577Q180 546 185 520T201 471T226 427Z" />
<glyph unicode="&apos;" horiz-adv-x="216" d="M227 700L134 421H141L240 700H227Z" />
<glyph unicode="(" horiz-adv-x="232" d="M303 780Q228 669 182 545T115 290Q96 167 103 43T151 -200H156Q121 -78 114 44T125 290Q145 420 191 542T308 780H303Z" />
<glyph unicode=")" horiz-adv-x="232" d="M-14 -199Q60 -89 106 35T174 290Q192 413 185 537T137 780H132Q167 658 174 536T163 290Q143 160 97 38T-19 -199H-14Z" />
<glyph unicode="*" horiz-adv-x="574" d="M520 585L348 529L350 523L521 573L520 585ZM431 387L352 527L347 522L421 380L431 387ZM230 381L351 522L348 527L221 388L230 381ZM195 573L349 523L353 528L200 585L195 573ZM375 700L346 526H352L387 700H375Z" />
<glyph unicode="+" horiz-adv-x="533" d="M79 250H477L479 260H80L79 250ZM313 480L235 31H245L323 480H313Z" />
<glyph unicode="," horiz-adv-x="267" d="M160 93L13 -158L19 -160L170 88L160 93Z" />
<glyph unicode="-" horiz-adv-x="203" d="M23 265H217L219 275H25L23 265Z" />
<glyph unicode="." horiz-adv-x="252" d="M88 1Q88 -4 91 -7T99 -10Q104 -10 107 -7T110 1Q110 6 107 9T99 12Q95 12 92 9T88 1Z" />
<glyph unicode="/" horiz-adv-x="460" d="M528 700L-39 -149H-27L540 699L528 700Z" />
<glyph unicode="0" horiz-adv-x="533" d="M97 350Q105 410 126 471T181 585T259 668T360 700Q405 699 434 677T479 617T502 534T508 440T502 350Q494 290 473 229T418 115T340 32T239 0Q194 0 165 22T120 82T97 166T91 260T97 350ZM86 350Q81 305 80 255T86 159T111
74T160 14T239 -9Q297 -10 344 22T425 106T482 223T513 350Q518 395 519 445T513 541T488 626T439 686T361 710Q302 710 255 678T174 594T117 477T86 350Z" />
<glyph unicode="1" horiz-adv-x="397" d="M177 655L348 691L230 0H239L361 705L179 666L177 655Z" />
<glyph unicode="2" horiz-adv-x="498" d="M7 0H448L450 10L34 11L378 328Q419 367 455 413T501 519Q506 552 499 585T474 647T423 693T346 711Q280 711 230 676T149 584T106 461H116Q127 523 157 578T234 667T346 701Q389 700 419 684T466 641T489 582T490 519Q484
479 466 447T422 387T369 334L7 0Z" />
<glyph unicode="3" horiz-adv-x="534" d="M279 363Q319 364 358 375T431 408T488 461T518 534Q525 578 509 618T457 684T366 710Q309 710 266 686T194 620T155 527H165Q176 574 202 613T270 676T365 700Q416 699 450 675T499 613T508 533Q501 494 479 465T423
415T353 384T280 371L279 363ZM252 -9Q310 -9 359 14T441 79T482 175Q489 221 473 256T427 315T358 352T280 368L279 360Q314 357 350 345T417 310T462 254T472 175Q465 125 434 85T355 23T252 1Q191 1 152 25T97 91T85 185H75Q71 145 80 110T112 48T169 6T252
-9Z" />
<glyph unicode="4" horiz-adv-x="536" d="M21 141L500 140L501 150H391H388L42 151L473 665L384 147V142L359 0H369L490 700H489L21 141Z" />
<glyph unicode="5" horiz-adv-x="540" d="M493 230Q500 287 483 335T428 414T333 446Q270 446 220 420T137 360L268 690H581L583 700H263L115 328Q144 359 177 383T249 422T332 436Q386 435 422 406T475 330T484 230Q475 163 441 111T354 30T239 1Q190 1 156 18T101
68T67 142L58 137Q70 93 93 60T152 9T238 -9Q287 -10 330 7T407 57T464 133T493 230Z" />
<glyph unicode="6" horiz-adv-x="520" d="M75 220Q84 274 117 321T203 398T320 427Q374 426 412 396T468 319T479 220Q471 160 438 110T355 30T243 1Q181 1 141 32T84 113T75 220ZM411 699L144 379Q117 348 95 306T65 220Q57 159 74 107T133 23T242 -9Q308 -10
360 21T446 104T489 220Q494 261 485 299T453 369T397 418T320 437Q264 438 217 415T134 356L135 355L424 699H411Z" />
<glyph unicode="7" horiz-adv-x="499" d="M123 690H564L103 0H114L582 700H125L123 690Z" />
<glyph unicode="8" horiz-adv-x="500" d="M148 541Q143 507 151 477T179 422T225 383T287 369Q320 368 353 382T413 419T460 474T484 541Q489 572 482 602T455 657T408 695T344 710Q295 710 253 686T183 624T148 541ZM157 541Q164 583 191 619T257 678T344 700Q389
699 420 677T466 618T474 541Q467 497 438 459T367 398T287 376Q248 376 216 400T168 461T157 541ZM67 185Q61 147 67 112T94 50T146 7T222 -9Q266 -10 304 5T370 48T417 110T443 185Q448 223 439 256T408 315T355 356T286 372Q247 372 211 358T144 317T94 258T67
185ZM77 185Q85 235 117 275T193 340T286 365Q333 364 368 339T422 274T433 185Q425 134 396 92T323 25T223 1Q168 1 133 26T83 94T77 185Z" />
<glyph unicode="9" horiz-adv-x="520" d="M519 480Q510 426 477 379T391 302T274 274Q220 274 182 304T126 381T115 480Q124 540 156 590T238 670T351 700Q413 699 453 668T510 587T519 480ZM183 0L450 321Q476 352 498 394T529 480Q537 541 520 593T460 677T352
710Q285 710 233 679T147 596T105 480Q100 439 109 401T140 331T196 282T274 263Q329 262 376 285T460 345H459L171 0H183Z" />
<glyph unicode=":" horiz-adv-x="291" d="M88 1Q88 -4 91 -7T99 -10Q104 -10 107 -7T110 1Q110 6 107 9T99 12Q95 12 92 9T88 1ZM148 349Q148 344 151 341T159 338Q163 338 166 341T170 349Q170 354 167 357T159 360Q154 360 151 357T148 349Z" />
<glyph unicode=";" horiz-adv-x="267" d="M177 349Q177 344 180 341T188 338Q192 338 195 341T199 349Q199 354 196 357T188 360Q183 360 180 357T177 349ZM160 93L13 -158L19 -160L170 88L160 93Z" />
<glyph unicode="&lt;" horiz-adv-x="621" d="M97 257L610 460L611 470L80 260L79 254L539 46L541 55L97 257Z" />
<glyph unicode="=" horiz-adv-x="596" d="M68 185H539L540 195H69L68 185ZM89 310H560L562 320H91L89 310Z" />
<glyph unicode="&gt;" horiz-adv-x="621" d="M559 258L45 56L44 46L575 255L576 261L116 470L114 460L559 258Z" />
<glyph unicode="?" horiz-adv-x="525" d="M501 520Q490 468 453 430T363 370T248 345H247L222 171H230L258 337Q318 341 372 364T463 427T511 520Q517 559 509 593T480 653T426 694T350 710Q302 710 264 695T195 653T137 594L145 588Q184 635 233 667T349 700Q405
699 441 675T493 609T501 520ZM181 1Q181 -4 184 -7T191 -10Q196 -10 199 -7T202 1Q202 6 199 9T192 12Q187 12 184 9T181 1Z" />
<glyph unicode="@" horiz-adv-x="747" d="M237 320Q244 375 272 420T341 492T429 517Q465 515 484 492T510 436T512 370Q505 323 479 278T415 203T330 175Q293 175 271 196T241 251T237 320ZM226 320Q221 279 230 244T265 186T331 164Q378 163 418 193T486 271T521
367Q526 404 520 440T491 501T430 528Q381 529 337 502T264 426T226 320ZM61 320Q51 252 62 193T105 89T190 19T317 -7Q392 -8 453 10T567 51L563 61Q512 38 452 21T318 4Q223 4 164 47T82 161T72 320Q85 397 121 465T214 586T342 668T495 697Q564 696 615 670T697
599T740 501T742 390Q736 347 717 305T670 230T608 179T540 164Q513 166 502 181T489 216T491 254Q492 262 494 272T499 289L579 520H567L488 291L490 290Q482 257 481 226T491 175T539 153Q575 150 610 168T676 221T726 298T753 390Q763 449 751 505T706 607T620
680T496 708Q412 709 339 678T208 593T112 469T61 320Z" />
<glyph unicode="A" horiz-adv-x="582" d="M145 272H478L479 282H146L145 272ZM383 688L472 276V273L529 0H541L387 715L-13 0H-1L151 273L153 277L383 688Z" />
<glyph unicode="B" horiz-adv-x="480" d="M133 386H243Q294 387 338 403T413 454T452 540Q458 577 449 606T417 657T361 689T286 700H180L60 0H177Q242 0 295 22T384 90T430 200Q436 243 423 278T383 339T322 378T253 392H134L133 384H243Q280 384 314 371T374
333T412 275T419 200Q409 138 376 96T291 33T178 11H72L188 689H285Q363 689 408 650T441 540Q432 490 402 458T327 411T234 394H134L133 386Z" />
<glyph unicode="C" horiz-adv-x="664" d="M93 350Q104 421 136 483T216 593T327 668T461 696Q503 696 540 688T608 661T665 614L668 629Q626 668 577 688T462 708Q388 708 324 680T209 602T125 488T81 350Q71 281 82 217T127 103T214 23T341 -7Q412 -8 467 13T573
72L576 87Q543 61 507 43T430 14T342 5Q271 5 220 34T137 112T94 222T93 350Z" />
<glyph unicode="D" horiz-adv-x="616" d="M180 700L60 0H71L191 700H180ZM216 0Q293 0 358 26T473 100T556 212T601 350Q611 421 599 484T554 595T465 672T335 700H185L183 689H334Q407 689 460 662T545 588T589 480T590 350Q578 278 547 216T467 108T355 37T217
11H67L65 0H216Z" />
<glyph unicode="E" horiz-adv-x="494" d="M62 0H391L392 10H64L62 0ZM180 690H508L510 700H182L180 690ZM128 384H437L438 394H130L128 384ZM180 700L60 0H71L191 700H180Z" />
<glyph unicode="F" horiz-adv-x="436" d="M181 689H469L471 700H183L181 689ZM127 373H406L407 383H129L127 373ZM180 700L60 0H71L191 700H180Z" />
<glyph unicode="G" horiz-adv-x="742" d="M437 330H708Q694 267 663 209T586 104T481 31T352 4Q279 4 226 32T140 110T94 221T92 350Q103 421 136 484T220 595T334 670T471 697Q554 697 615 657T706 550L717 556Q692 601 657 635T576 689T472 708Q397 708 331
680T213 603T127 489T81 350Q71 280 84 216T132 102T222 22T351 -7Q424 -7 486 21T596 99T675 211T720 340H439L437 330Z" />
<glyph unicode="H" horiz-adv-x="627" d="M128 377H574L576 387H129L128 377ZM623 700L502 0H513L634 700H623ZM180 700L60 0H71L191 700H180Z" />
<glyph unicode="I" horiz-adv-x="174" d="M176 700L55 0H65L186 700H176Z" />
<glyph unicode="J" horiz-adv-x="191" d="M-178 -158L-185 -165Q-176 -178 -160 -190T-124 -211T-79 -219Q-44 -220 -19 -209T23 -176T51 -125T67 -60L197 700H186L58 -50Q47 -121 18 -165T-80 -208Q-111 -208 -135 -193T-178 -158Z" />
<glyph unicode="K" horiz-adv-x="440" d="M176 700L55 0H66L186 700H176ZM489 699L128 373L383 0H398L141 372L505 699H489Z" />
<glyph unicode="L" horiz-adv-x="417" d="M180 700L60 0H371L373 10H72L190 700H180Z" />
<glyph unicode="M" horiz-adv-x="805" d="M227 675L394 105L757 674L709 0H720L771 716L398 132L227 715L31 0H41L227 675Z" />
<glyph unicode="N" horiz-adv-x="675" d="M680 700L562 17L164 715L41 0H52L169 678L568 -15L691 700H680Z" />
<glyph unicode="O" horiz-adv-x="751" d="M92 350Q103 421 136 483T218 594T331 669T468 697Q540 697 593 668T678 590T722 479T725 350Q713 279 681 217T598 106T485 31T349 3Q277 3 224 32T139 110T94 221T92 350ZM81 350Q71 280 84 216T131 102T220 22T348
-8Q422 -8 487 20T604 97T690 212T736 350Q746 420 733 484T686 598T597 678T469 708Q394 708 329 680T212 603T126 488T81 350Z" />
<glyph unicode="P" horiz-adv-x="465" d="M180 700L60 0H71L191 700H180ZM185 690H300Q357 690 397 666T456 598T465 497Q455 439 423 396T341 328T233 304H119L117 294H232Q294 294 345 319T431 390T476 497Q485 557 466 602T404 674T301 700H187L185 690Z" />
<glyph unicode="Q" horiz-adv-x="748" d="M92 350Q103 421 136 483T218 594T331 669T468 697Q540 697 593 668T678 590T722 479T725 350Q713 279 681 217T598 106T485 31T349 3Q277 3 224 32T139 110T94 221T92 350ZM81 350Q71 280 84 216T131 102T220 22T348
-8Q422 -8 487 20T604 97T690 212T736 350Q746 420 733 484T686 598T597 678T469 708Q394 708 329 680T212 603T126 488T81 350ZM412 300L672 0H688L427 300H412Z" />
<glyph unicode="R" horiz-adv-x="454" d="M220 317L380 0H393L232 317H220ZM180 700L60 0H71L191 700H180ZM180 689H290Q350 688 395 667T464 606T477 507Q467 447 432 407T343 346T227 324H118L116 314H226Q291 315 346 337T439 401T488 507Q498 569 474 612T401
677T291 700H182L180 689Z" />
<glyph unicode="S" horiz-adv-x="473" d="M62 193L52 189Q55 140 71 95T124 22T221 -7Q263 -8 299 5T363 44T409 101T433 173Q438 211 430 241T402 295T357 337T300 368Q268 382 240 399T190 438T159 488T155 552Q162 595 188 627T252 678T335 696Q382 696 412
676T457 625T478 561L488 564Q484 599 467 631T417 685T335 708Q288 708 247 688T179 633T144 552Q138 514 148 485T180 432T231 392T294 359Q332 342 363 317T412 257T422 173Q414 124 387 86T318 25T221 4Q162 4 128 32T80 104T62 193Z" />
<glyph unicode="T" horiz-adv-x="418" d="M110 689H294L176 0H187L305 689H490L492 700H112L110 689Z" />
<glyph unicode="U" horiz-adv-x="558" d="M176 700L93 220Q87 174 92 133T115 60T167 10T252 -9Q302 -10 342 8T412 57T461 130T488 220L570 700H559L476 220Q466 159 437 110T361 31T252 2Q191 2 156 32T108 112T104 220L186 700H176Z" />
<glyph unicode="V" horiz-adv-x="582" d="M276 15L118 700H106L271 -15L659 700H646L276 15Z" />
<glyph unicode="W" horiz-adv-x="921" d="M661 27L555 716L234 27L121 700H110L228 -15L549 677L655 -15L994 700H983L661 27Z" />
<glyph unicode="X" horiz-adv-x="485" d="M529 699L286 378L148 700H134L279 368L2 0H16L283 356L436 0H449L291 367L543 699H529Z" />
<glyph unicode="Y" horiz-adv-x="492" d="M558 699L261 282L120 700H107L255 267L208 0H219L265 267L571 699H558Z" />
<glyph unicode="Z" horiz-adv-x="519" d="M129 689H574L-8 0H468L470 12H16L598 700H131L129 689Z" />
<glyph unicode="[" horiz-adv-x="252" d="M210 769H335L336 780H200L46 -220H182L184 -209H59L210 769Z" />
<glyph unicode="\" horiz-adv-x="422" d="M107 700L368 0H381L120 700H107Z" />
<glyph unicode="]" horiz-adv-x="252" d="M95 -209H-30L-31 -220H104L259 780H123L121 769H246L95 -209Z" />
<glyph unicode="^" horiz-adv-x="494" d="M339 692L471 460H484L341 709V709L114 461H129L339 692Z" />
<glyph unicode="_" horiz-adv-x="485" d="M-46 -109H440L442 -98H-44L-46 -109Z" />
<glyph unicode="`" horiz-adv-x="342" d="M186 692L331 536L336 540L195 700L186 692Z" />
<glyph unicode="a" horiz-adv-x="422" d="M45 134Q52 179 79 208T145 252T225 267Q263 267 297 255T359 219L361 230Q348 242 328 252T282 270T226 277Q178 277 138 260T70 211T35 134Q28 90 43 58T88 8T157 -9Q205 -9 245 13T313 77T351 174L346 184Q335 128
308 87T243 23T159 1Q122 1 94 17T52 63T45 134ZM117 403Q137 416 160 429T210 451T271 460Q311 459 334 445T366 408T375 363T373 320L317 0H327L382 320Q387 361 379 395T345 449T272 470Q221 470 182 451T112 411L117 403Z" />
<glyph unicode="b" horiz-adv-x="525" d="M194 780H184L50 0H60L194 780ZM494 230Q503 292 487 347T430 436T327 470Q280 469 241 448T171 393T121 316T95 230Q89 190 94 148T118 71T168 13T247 -9Q310 -10 362 22T449 109T494 230ZM484 230Q475 167 441 115T356
31T244 1Q201 1 171 22T124 78T100 152T100 230Q106 271 125 312T175 386T243 439T324 460Q385 460 423 428T476 343T484 230Z" />
<glyph unicode="c" horiz-adv-x="473" d="M67 230Q76 293 112 345T202 428T319 460Q351 460 378 452T426 429T460 400L462 412Q441 435 404 452T320 470Q253 470 197 438T103 351T57 230Q49 167 69 113T135 25T247 -9Q297 -9 338 8T406 48L408 60Q390 46 366 33T311
10T248 1Q185 1 142 33T78 117T67 230Z" />
<glyph unicode="d" horiz-adv-x="525" d="M544 780L410 0H420L554 780H544ZM56 230Q47 168 63 113T119 24T222 -9Q269 -9 308 12T378 67T428 144T455 230Q461 270 456 312T432 389T382 447T303 470Q240 470 188 438T100 351T56 230ZM66 230Q75 293 109 345T193
429T305 460Q348 459 378 438T426 382T450 308T450 230Q443 189 424 148T374 74T306 21T226 1Q165 0 127 32T73 118T66 230Z" />
<glyph unicode="e" horiz-adv-x="502" d="M225 -10Q288 -10 340 19T435 107L427 113Q386 57 337 29T225 0Q178 0 142 25T85 94T65 197Q65 246 84 292T137 377T214 437T304 460Q349 460 384 436T440 370T460 280Q460 263 456 250T448 229L455 238H68V228H460Q464
240 467 253T470 279Q470 331 449 374T390 443T304 470Q255 470 210 447T131 385T76 297T55 197Q55 136 76 89T136 16T225 -10Z" />
<glyph unicode="f" horiz-adv-x="269" d="M100 460L98 450H288L289 460H100ZM372 733L379 740Q371 751 361 762T337 780T304 788Q264 789 238 768T196 715T176 650L65 0H75L186 650Q192 678 205 708T242 758T304 778Q328 777 344 763T372 733Z" />
<glyph unicode="g" horiz-adv-x="525" d="M27 -30Q21 -83 35 -128T85 -201T179 -229Q242 -230 293 -199T378 -114T423 10L500 460H490L412 10Q402 -57 370 -109T288 -190T180 -219Q125 -219 91 -193T44 -124T37 -30H27ZM56 230Q47 168 63 113T119 24T222 -9Q269
-9 308 12T378 67T428 144T455 230Q461 270 456 312T432 389T382 447T303 470Q240 470 188 438T100 351T56 230ZM66 230Q75 293 109 345T193 429T305 460Q347 459 377 438T425 383T449 310T451 235Q444 192 425 151T375 75T307 21T226 1Q165 0 127 32T73 117T66
230Z" />
<glyph unicode="h" horiz-adv-x="460" d="M199 780H189L55 0H65L199 780ZM397 320L341 0H351L407 320Q412 360 405 393T373 448T302 470Q251 470 211 443T144 373T107 281H112Q122 325 148 366T214 433T302 460Q345 459 367 440T395 388T397 320Z" />
<glyph unicode="i" horiz-adv-x="184" d="M174 695Q174 691 176 688T184 685Q189 685 191 688T194 695Q194 700 192 702T184 705Q179 705 177 703T174 695ZM140 460L60 0H70L150 460H140Z" />
<glyph unicode="j" horiz-adv-x="174" d="M164 695Q164 691 166 688T174 685Q179 685 181 688T184 695Q184 700 182 702T174 705Q169 705 167 703T164 695ZM-149 -165L-157 -172Q-149 -183 -139 -194T-115 -212T-82 -219Q-42 -219 -16 -199T26 -146T47 -82L140
460H130L37 -82Q31 -109 18 -138T-19 -188T-82 -209Q-106 -209 -122 -195T-149 -165Z" />
<glyph unicode="k" horiz-adv-x="361" d="M184 780L50 0H60L194 780H184ZM370 459L105 271L312 0H324L117 270L386 459H370Z" />
<glyph unicode="l" horiz-adv-x="174" d="M189 780L55 0H65L199 780H189Z" />
<glyph unicode="m" horiz-adv-x="669" d="M615 320Q620 357 615 391T590 447T530 470Q477 471 436 435T370 339Q373 371 366 401T340 450T283 470Q247 471 215 453T159 403T124 336L145 460H135L55 0H65L117 291Q124 334 148 373T208 436T282 460Q319 459 336
438T358 385T358 320L302 0H312L364 290Q371 332 395 371T454 436T530 460Q566 459 583 438T605 385T605 320L550 0H560L615 320Z" />
<glyph unicode="n" horiz-adv-x="460" d="M397 320L341 0H351L407 320Q412 360 405 393T373 448T302 470Q239 470 192 432T125 336L145 460H135L55 0H65L117 290Q124 335 150 373T216 436T302 460Q345 459 367 440T395 388T397 320Z" />
<glyph unicode="o" horiz-adv-x="539" d="M62 230Q53 167 73 113T140 25T252 -9Q318 -10 374 22T468 109T515 230Q523 293 503 347T437 435T325 470Q258 470 202 438T108 351T62 230ZM72 230Q81 293 116 345T206 428T325 460Q387 459 430 427T493 343T505 230Q496
167 460 115T370 32T253 1Q189 1 146 33T83 117T72 230Z" />
<glyph unicode="p" horiz-adv-x="525" d="M22 -219L140 460H130L12 -219H22ZM494 230Q503 292 487 347T430 436T327 470Q280 469 241 448T171 393T121 316T95 230Q89 190 94 148T118 71T168 13T247 -9Q310 -10 362 22T449 109T494 230ZM484 230Q475 167 441 115T356
31T244 1Q201 1 171 22T124 78T100 152T100 230Q106 271 125 312T175 386T243 439T324 460Q385 460 423 428T476 343T484 230Z" />
<glyph unicode="q" horiz-adv-x="525" d="M373 -219H382L500 460H490L373 -219ZM56 230Q47 168 63 113T119 24T222 -9Q269 -9 308 12T378 67T428 144T455 230Q461 270 456 312T432 389T382 447T303 470Q240 470 188 438T100 351T56 230ZM66 230Q75 293 109 345T193
429T305 460Q348 459 378 438T426 382T450 308T450 230Q443 189 424 148T374 74T306 21T226 1Q165 0 127 32T73 118T66 230Z" />
<glyph unicode="r" horiz-adv-x="281" d="M145 460H135L55 0H65L145 460ZM310 440L317 448Q304 456 290 462T259 470Q213 471 182 443T133 370T107 281H112Q120 322 138 363T185 433T258 460Q272 459 285 454T310 440Z" />
<glyph unicode="s" horiz-adv-x="391" d="M56 132L46 130Q47 95 59 63T98 11T174 -9Q212 -9 244 7T297 51T324 117Q328 152 314 175T273 214T217 240Q185 251 160 264T121 299T113 359Q120 405 157 431T240 458Q293 457 317 430T351 365L361 368Q354 395 340 417T302
453T241 468Q208 468 179 455T129 418T103 359Q97 319 110 295T150 257T210 231Q240 221 265 207T304 171T314 117Q307 65 267 33T175 0Q130 0 105 19T68 69T56 132Z" />
<glyph unicode="t" horiz-adv-x="184" d="M68 460L66 450H222L224 460H68ZM167 620L60 0H70L177 620H167Z" />
<glyph unicode="u" horiz-adv-x="460" d="M91 150L145 460H135L81 150Q75 108 81 72T112 13T183 -9Q246 -10 291 27T361 121L341 0H351L431 460H421L370 172Q363 129 337 90T271 26T184 1Q140 1 118 22T91 77T91 150Z" />
<glyph unicode="v" horiz-adv-x="407" d="M64 460L184 -15L453 460H441L188 11L75 460H64Z" />
<glyph unicode="w" horiz-adv-x="601" d="M67 460L127 -15L345 441L414 -15L640 460H630L420 19L351 476L133 19L76 460H67Z" />
<glyph unicode="x" horiz-adv-x="368" d="M389 459L205 245L87 460H73L198 238L-8 0H7L203 229L329 0H342L211 237L403 459H389Z" />
<glyph unicode="y" horiz-adv-x="412" d="M455 460H444L180 21L191 20L72 460H61L181 21L36 -219H47L455 460Z" />
<glyph unicode="z" horiz-adv-x="417" d="M417 450L-8 0H371L373 11H15L440 460H90L89 450H417Z" />
<glyph unicode="{" horiz-adv-x="272" d="M225 640Q233 699 254 734T326 770H346L347 780H327Q289 780 267 762T233 713T215 640L183 430Q176 381 156 346T106 295L104 285Q128 266 136 232T140 150L108 -60Q103 -99 104 -130T122 -181T177 -200H196L198 -190H178Q143
-190 129 -173T114 -127T117 -60L150 150Q152 176 151 199T145 240T130 272T106 292L105 289Q121 294 135 306T161 336T181 378T193 430L225 640Z" />
<glyph unicode="|" horiz-adv-x="203" d="M201 785L46 -215H56L211 785H201Z" />
<glyph unicode="}" horiz-adv-x="272" d="M103 -60Q95 -119 74 -154T2 -190H-17L-19 -200H1Q39 -200 61 -183T96 -133T113 -60L145 150Q152 200 172 234T223 285L224 295Q200 314 191 348T188 430L220 640Q224 679 223 711T206 761T151 780H132L131 770H150Q185
770 198 753T213 707T211 640L178 430Q175 404 176 381T183 340T198 308T223 288V292Q206 286 192 274T167 244T147 202T135 150L103 -60Z" />
<glyph unicode="~" horiz-adv-x="558" d="M96 179Q95 184 95 189T95 201Q101 246 131 281T211 317Q236 316 253 305T282 276T306 243Q323 218 344 196T402 173Q425 172 445 182T479 207Q493 223 501 245T514 290Q515 297 515 304T514 318L505 321Q506 313 506
305T505 290Q499 248 473 215T403 183Q370 183 350 205T314 250Q303 267 289 284T257 314T212 327Q186 327 164 317T126 290Q110 274 100 252T87 206Q86 199 86 193T86 182L96 179Z" />
<glyph unicode="&#xa0;" horiz-adv-x="300" />
<glyph unicode="&#xa1;" horiz-adv-x="291" d="M102 -244L184 255H178L88 -244H102ZM225 454Q225 459 223 462T216 465Q212 465 208 462T204 454Q203 450 205 447T213 443Q217 443 221 446T225 454Z" />
<glyph unicode="&#xa2;" horiz-adv-x="562" d="M280 -4L255 -111H269L284 -4H280ZM105 230Q115 292 151 344T242 428T362 460Q408 460 445 442T502 400L504 412Q483 435 446 452T362 470Q295 470 239 438T144 351T96 230Q86 168 106 113T170 25T282 -9Q331 -9
373 8T442 48L444 60Q417 39 375 20T282 1Q219 1 176 33T115 118T105 230ZM374 578L358 464H362L388 578H374Z" />
<glyph unicode="&#xa3;" horiz-adv-x="562" d="M109 305L108 295H409L411 305H109ZM524 498H534Q537 529 533 565T515 634T472 688T396 710Q357 710 323 696T263 658T219 603T196 538Q191 505 198 477T219 422T245 371T265 320T269 264Q259 213 226 170T149 86T64
0H456L457 10L76 11L78 1Q97 24 128 53T191 115T247 185T279 264Q283 294 276 321T255 373T229 423T209 477T206 538Q213 579 239 616T306 677T395 700Q439 699 465 679T506 628T523 563T524 498Z" />
<glyph unicode="&#xa4;" horiz-adv-x="543" d="M117 523L169 460L180 469L129 533L117 523ZM49 68L122 130L115 140L41 78L49 68ZM487 461L560 522L552 533L479 470L487 461ZM421 131L473 67L483 77L432 140L421 131ZM74 300Q65 238 84 184T148 95T256 61Q320
60 376 93T470 180T518 300Q527 362 508 416T444 505T336 540Q271 540 215 507T122 420T74 300ZM84 300Q94 362 130 414T220 498T336 530Q397 529 438 496T498 411T508 300Q498 239 462 187T372 102T256 71Q195 71 154 104T94 189T84 300Z" />
<glyph unicode="&#xa5;" horiz-adv-x="548" d="M48 270H511L513 280H50L48 270ZM27 145H490L492 155H29L27 145ZM572 699L277 282L134 700H122L270 268L223 0H234L279 265L585 699H572Z" />
<glyph unicode="&#xa6;" horiz-adv-x="203" d="M190 695L147 456H157L200 695H190ZM123 245H113L70 6H80L123 245Z" />
<glyph unicode="&#xa7;" horiz-adv-x="386" d="M425 616L432 620Q423 648 403 668T353 699T291 710Q255 710 221 698T162 661T132 599Q128 571 139 552T172 518T217 494T264 475Q289 465 318 450T366 413T382 361Q377 323 352 301T289 265T213 241V241Q246 242
276 249T330 270T371 306T392 360Q397 393 379 416T330 454T272 483Q253 491 230 501T185 524T151 555T142 599Q147 633 171 655T227 688T290 700Q321 700 348 690T395 661T425 616ZM32 127L23 123Q27 85 49 55T105 8T181 -9Q209 -10 236 -4T287 16T327 51T348
100Q354 141 335 167T285 210T224 241Q205 249 183 259T141 284T110 316T101 359Q106 391 131 415T193 455T272 480H271Q236 478 205 469T151 445T112 409T91 360Q86 326 106 303T157 263T216 233Q245 220 275 204T325 163T338 100Q332 63 307 41T247 10T181 0Q140
1 108 18T56 63T32 127Z" />
<glyph unicode="&#xa8;" horiz-adv-x="409" d="M380 689Q380 685 382 682T389 678Q393 678 397 681T402 689Q402 694 399 697T392 700Q388 700 384 697T380 689ZM186 689Q186 685 188 682T195 678Q199 678 203 681T208 689Q208 694 205 697T198 700Q194 700 190
697T186 689Z" />
<glyph unicode="&#xa9;" horiz-adv-x="776" d="M229 350Q237 407 267 454T343 529T447 558Q485 558 515 546T570 509L572 518Q546 540 517 552T447 565Q388 564 340 535T261 458T222 350Q214 294 230 246T284 167T382 136Q424 135 457 148T520 183L522 192Q492
170 458 156T382 143Q326 143 289 172T237 249T229 350ZM86 350Q96 422 131 485T219 597T339 673T480 700Q552 700 609 672T704 594T758 482T765 350Q754 278 719 215T631 103T511 27T371 0Q298 0 241 28T146 106T92 218T86 350ZM76 350Q66 278 82 214T137 99T235
19T370 -10Q447 -10 515 18T638 95T728 209T775 350Q784 422 768 486T713 601T614 681T480 710Q403 710 335 682T212 605T122 491T76 350Z" />
<glyph unicode="&#xaa;" horiz-adv-x="230" d="M92 528Q97 560 127 578T188 596Q209 595 223 588T250 572L251 578Q240 586 226 592T188 600Q155 600 124 581T88 529Q83 495 101 476T150 456Q188 455 213 481T247 539L243 540Q234 510 209 485T150 461Q123 461
106 479T92 528ZM133 663Q148 675 167 685T211 695Q241 693 251 673T258 625L228 461H233L263 625Q266 654 255 676T211 700Q186 701 165 690T129 667L133 663Z" />
<glyph unicode="&#xab;" horiz-adv-x="470" d="M220 255L459 482L453 489L210 256L373 20L381 27L220 255ZM65 255L304 482L298 489L55 256L218 20L225 27L65 255Z" />
<glyph unicode="&#xac;" horiz-adv-x="601" d="M98 365H565L531 176H541L576 375H100L98 365Z" />
<glyph unicode="&#xad;" horiz-adv-x="203" d="M23 265H217L219 275H25L23 265Z" />
<glyph unicode="&#xae;" horiz-adv-x="776" d="M389 340L489 150H498L397 340H389ZM363 570L297 150H304L370 570H363ZM362 563H428Q481 561 515 535T542 454Q534 400 492 373T394 344H328L327 338L393 339Q450 340 495 368T549 454Q557 510 521 539T429 570H363L362
563ZM86 350Q96 422 131 485T219 597T339 673T480 700Q552 700 609 672T704 594T758 482T765 350Q754 278 719 215T631 103T511 27T371 0Q298 0 241 28T146 106T92 218T86 350ZM76 350Q66 278 82 214T137 99T235 19T370 -10Q447 -10 515 18T638 95T728 209T775
350Q784 422 768 486T713 601T614 681T480 710Q403 710 335 682T212 605T122 491T76 350Z" />
<glyph unicode="&#xaf;" horiz-adv-x="494" d="M163 665H503L504 675H165L163 665Z" />
<glyph unicode="&#xb0;" horiz-adv-x="269" d="M94 601Q89 569 99 542T133 498T190 481Q224 480 253 496T301 539T326 600Q331 631 321 658T287 702T231 720Q197 720 168 704T119 661T94 601ZM104 600Q109 630 127 655T172 695T230 710Q275 709 299 677T316 600Q311
570 293 545T248 505T191 491Q146 491 122 524T104 600Z" />
<glyph unicode="&#xb1;" horiz-adv-x="591" d="M46 0H512L514 10H48L46 0ZM105 380H571L572 390H106L105 380ZM370 620L297 150H307L380 620H370Z" />
<glyph unicode="&#xb2;" horiz-adv-x="322" d="M50 283L314 282L315 288L66 289L276 479Q301 502 323 530T351 594Q356 620 348 646T318 690T261 709Q221 709 191 688T141 633T114 559H120Q127 596 146 629T193 682T261 703Q295 702 315 685T342 644T345 594Q339
558 317 532T270 483L50 283Z" />
<glyph unicode="&#xb3;" horiz-adv-x="298" d="M193 498Q225 500 256 511T310 545T339 600Q343 626 334 650T304 689T250 706Q198 706 165 674T121 597H127Q138 639 169 669T250 700Q295 699 317 668T333 600Q327 569 305 548T253 516T194 503L193 498ZM174 275Q209
274 239 288T289 328T314 385Q318 413 309 433T282 468T240 490T194 501V496Q222 493 250 481T295 445T308 385Q300 340 262 310T174 281Q118 281 95 313T75 391H69Q67 359 77 333T111 291T174 275Z" />
<glyph unicode="&#xb4;" horiz-adv-x="342" d="M336 691L329 699L138 541L143 536L336 691Z" />
<glyph unicode="&#xb5;" horiz-adv-x="460" d="M145 460H135L0 -319H10L79 78Q85 40 109 16T183 -9Q247 -10 293 28T361 122L341 0H351L431 460H421L369 172Q362 127 336 88T271 25T184 1Q141 1 119 20T91 71T88 141L145 460Z" />
<glyph unicode="&#xb6;" horiz-adv-x="434" d="M298 270L214 -219H224L381 690H458L302 -219H312L470 700H372Q308 700 253 674T161 600T114 485Q104 421 125 374T192 301T298 270Z" />
<glyph unicode="&#xb7;" horiz-adv-x="234" d="M117 222Q117 218 118 216T121 212T127 210Q129 210 132 211T137 215T139 221Q139 224 138 226T135 230T130 232Q127 232 124 231T119 227T117 222Z" />
<glyph unicode="&#xb8;" horiz-adv-x="339" d="M144 0L75 -87Q93 -77 114 -69T159 -62Q174 -63 186 -71T205 -93T209 -126Q206 -152 189 -170T147 -199T100 -209Q77 -209 60 -201T26 -176L18 -182Q36 -200 54 -209T99 -219Q126 -220 152 -209T196 -176T219 -126Q221
-105 214 -89T192 -63T160 -52Q138 -51 122 -58T88 -75L156 0H144Z" />
<glyph unicode="&#xb9;" horiz-adv-x="456" d="M226 667L328 689L257 275H263L337 697L227 674L226 667Z" />
<glyph unicode="&#xba;" horiz-adv-x="269" d="M91 581Q84 533 110 497T187 461Q220 460 249 476T298 520T323 580Q327 611 317 638T284 682T227 700Q193 700 164 684T116 641T91 581ZM101 580Q105 610 123 635T169 675T227 690Q272 689 296 657T313 580Q308 550
290 525T244 485T187 471Q142 471 118 504T101 580Z" />
<glyph unicode="&#xbb;" horiz-adv-x="470" d="M284 255L45 28L51 21L294 254L131 490L123 483L284 255ZM439 255L200 28L206 21L449 254L286 490L279 483L439 255Z" />
<glyph unicode="&#xbc;" horiz-adv-x="731" d="M744 699L68 0H80L756 699H744ZM107 667L210 689L138 275H144L218 697L108 674L107 667ZM377 84H664L665 90H599H597H383L377 84ZM383 85L648 399L594 88V85L579 0H585L657 420V419L376 85H383Z" />
<glyph unicode="&#xbd;" horiz-adv-x="794" d="M744 699L68 0H80L756 699H744ZM107 667L210 689L138 275H144L218 697L108 674L107 667ZM455 3L719 2L720 8L471 9L680 199Q705 222 728 249T757 313Q761 339 753 365T723 410T665 429Q625 429 595 408T546 353T518
279H524Q532 316 550 349T598 402T665 423Q700 422 720 405T747 363T750 313Q744 277 722 251T675 202L455 3Z" />
<glyph unicode="&#xbe;" horiz-adv-x="795" d="M809 699L133 0H145L821 699H809ZM198 498Q230 500 261 511T315 545T344 600Q348 626 339 650T309 689T255 706Q203 706 170 674T125 597H131Q142 639 173 669T254 700Q299 699 321 668T338 600Q332 569 310 548T258
516T199 503L198 498ZM178 275Q213 274 243 288T293 328T319 385Q323 413 314 433T287 468T245 490T199 501L198 496Q226 493 254 481T300 445T313 385Q305 340 267 310T178 281Q122 281 99 313T80 391H74Q71 359 81 333T116 291T178 275ZM442 84H729L730 90H664H662H448L442
84ZM448 85L713 399L660 88L659 85L644 0H650L722 420V419L441 85H448Z" />
<glyph unicode="&#xbf;" horiz-adv-x="525" d="M91 180Q98 219 128 257T212 323T345 356V355L369 530H362L333 363Q273 359 219 336T128 273T81 180Q75 141 82 107T111 47T165 6T242 -9Q289 -10 327 5T396 47T455 106L447 112Q407 65 358 33T242 1Q188 1 151 25T98
91T91 180ZM411 699Q411 704 409 707T402 710Q399 710 396 709T391 705T389 699Q389 695 391 692T398 688Q401 688 403 689T408 693T411 699Z" />
<glyph unicode="&#xc0;" horiz-adv-x="582" d="M143 272H478L479 282H144L143 272ZM383 688L472 276V273L529 0H541L387 715L-13 0H-1L151 273L153 277L383 688ZM291 932L434 776L439 780L300 940L291 932Z" />
<glyph unicode="&#xc1;" horiz-adv-x="582" d="M143 272H478L479 282H144L143 272ZM383 688L472 276V273L529 0H541L387 715L-13 0H-1L151 273L153 277L383 688ZM556 931L549 939L356 781L359 776L556 931Z" />
<glyph unicode="&#xc2;" horiz-adv-x="582" d="M143 272H478L479 282H144L143 272ZM383 688L472 276V273L529 0H541L387 715L-13 0H-1L151 273L153 277L383 688ZM420 910L546 775L553 782L421 922L242 783L248 776L420 910Z" />
<glyph unicode="&#xc3;" horiz-adv-x="582" d="M143 272H478L479 282H144L143 272ZM383 688L472 276V273L529 0H541L387 715L-13 0H-1L151 273L153 277L383 688ZM277 797L287 796Q292 808 299 819T318 837T349 846Q370 846 385 835T416 812T459 800Q475 800 488
806T512 825T533 852L523 855Q510 835 496 822T460 808Q442 807 430 814T406 830T381 846T347 854Q327 854 313 846T291 824T277 797Z" />
<glyph unicode="&#xc4;" horiz-adv-x="582" d="M143 272H478L479 282H144L143 272ZM383 688L472 276V273L529 0H541L387 715L-13 0H-1L151 273L153 277L383 688ZM488 806Q488 802 490 799T497 795Q501 795 505 798T510 806Q510 811 508 814T501 817Q496 817 492
814T488 806ZM294 806Q293 802 296 799T303 795Q307 795 311 798T316 806Q316 811 313 814T306 817Q302 817 298 814T294 806Z" />
<glyph unicode="&#xc5;" horiz-adv-x="582" d="M143 272H478L479 282H144L143 272ZM383 688L472 276V273L529 0H541L387 715L-13 0H-1L151 273L153 277L383 688ZM303 809Q299 782 308 759T338 723T385 709Q412 708 437 721T479 757T502 808Q506 835 496 857T466
893T419 908Q392 908 367 895T325 859T303 809ZM313 808Q316 833 332 853T371 886T418 898Q454 897 475 871T492 808Q488 784 472 763T433 730T386 719Q350 719 329 745T313 808Z" />
<glyph unicode="&#xc6;" horiz-adv-x="869" d="M222 280H503L505 290H223L222 280ZM563 700L-23 0H-10L577 699L563 700ZM455 0H765L767 10H457L455 0ZM577 690H883L885 700H563L577 690ZM521 384H811L813 394H523L521 384ZM569 700L448 0H459L580 700H569Z" />
<glyph unicode="&#xc7;" horiz-adv-x="664" d="M93 350Q104 421 136 483T216 593T327 668T461 696Q503 696 540 688T608 661T665 614L668 629Q626 668 577 688T462 708Q388 708 324 680T209 602T125 488T81 350Q71 281 82 217T127 103T214 23T341 -7Q412 -8 467
13T573 72L576 87Q543 61 507 43T430 14T342 5Q271 5 220 34T137 112T94 222T93 350ZM336 -1L267 -88Q285 -78 306 -70T351 -63Q366 -64 378 -72T396 -94T401 -127Q397 -153 380 -171T339 -200T292 -210Q269 -210 252 -202T218 -177L210 -183Q228 -201 246 -210T291
-220Q318 -221 344 -210T388 -177T411 -127Q413 -106 406 -90T384 -64T352 -53Q330 -52 314 -59T280 -76L348 -1H336Z" />
<glyph unicode="&#xc8;" horiz-adv-x="494" d="M62 0H391L392 10H64L62 0ZM180 690H508L510 700H182L180 690ZM128 384H437L438 394H130L128 384ZM180 700L60 0H71L191 700H180ZM232 925L375 769L379 773L240 933L232 925Z" />
<glyph unicode="&#xc9;" horiz-adv-x="494" d="M62 0H391L392 10H64L62 0ZM180 690H508L510 700H182L180 690ZM128 384H437L438 394H130L128 384ZM180 700L60 0H71L191 700H180ZM535 924L529 932L335 774L339 769L535 924Z" />
<glyph unicode="&#xca;" horiz-adv-x="494" d="M62 0H391L392 10H64L62 0ZM180 690H508L510 700H182L180 690ZM128 384H437L438 394H130L128 384ZM180 700L60 0H71L191 700H180ZM380 903L506 768L513 775L381 915L202 776L208 769L380 903Z" />
<glyph unicode="&#xcb;" horiz-adv-x="494" d="M62 0H391L392 10H64L62 0ZM180 690H508L510 700H182L180 690ZM128 384H437L438 394H130L128 384ZM180 700L60 0H71L191 700H180ZM448 799Q448 795 450 792T457 788Q461 788 465 791T470 799Q470 804 468 807T461
810Q456 810 452 807T448 799ZM254 799Q253 795 256 792T263 788Q267 788 271 791T276 799Q276 804 273 807T266 810Q262 810 258 807T254 799Z" />
<glyph unicode="&#xcc;" horiz-adv-x="174" d="M176 700L55 0H65L186 700H176ZM67 925L210 769L214 773L75 933L67 925Z" />
<glyph unicode="&#xcd;" horiz-adv-x="174" d="M176 700L55 0H65L186 700H176ZM370 924L364 932L170 774L174 769L370 924Z" />
<glyph unicode="&#xce;" horiz-adv-x="174" d="M176 700L55 0H65L186 700H176ZM215 903L341 768L348 775L216 915L37 776L43 769L215 903Z" />
<glyph unicode="&#xcf;" horiz-adv-x="174" d="M176 700L55 0H65L186 700H176ZM254 799Q253 795 256 792T263 788Q267 788 271 791T276 799Q276 804 273 807T266 810Q262 810 258 807T254 799ZM118 799Q118 795 120 792T127 788Q131 788 135 791T140 799Q140 804
138 807T131 810Q126 810 122 807T118 799Z" />
<glyph unicode="&#xd0;" horiz-adv-x="659" d="M37 345H328L330 355H38L37 345ZM180 700L60 0H71L191 700H180ZM216 0Q318 2 399 48T532 172T601 350Q615 444 589 523T499 650T335 700H185L183 689H334Q407 688 460 661T545 587T589 479T590 350Q578 278 546 217T466
110T354 38T217 11H67L65 0H216Z" />
<glyph unicode="&#xd1;" horiz-adv-x="645" d="M660 700L542 17L144 715L21 0H32L149 678L548 -15L671 700H660ZM300 757L309 756Q313 768 320 779T340 798T371 806Q392 805 408 794T440 771T481 760Q497 760 510 766T534 785T554 812L545 815Q533 795 519 782T482
768Q465 767 452 774T426 790T401 806T370 814Q349 814 336 806T314 784T300 757Z" />
<glyph unicode="&#xd2;" horiz-adv-x="751" d="M92 350Q103 421 136 483T218 594T331 669T468 697Q540 697 593 668T678 590T722 479T725 350Q713 279 681 217T598 106T485 31T349 3Q277 3 224 32T139 110T94 221T92 350ZM81 350Q71 280 84 216T131 102T220 22T348
-8Q422 -8 487 20T604 97T690 212T736 350Q746 420 733 484T686 598T597 678T469 708Q394 708 329 680T212 603T126 488T81 350ZM375 925L516 769L523 773L384 933L375 925Z" />
<glyph unicode="&#xd3;" horiz-adv-x="751" d="M92 350Q103 421 136 483T218 594T331 669T468 697Q540 697 593 668T678 590T722 479T725 350Q713 279 681 217T598 106T485 31T349 3Q277 3 224 32T139 110T94 221T92 350ZM81 350Q71 280 84 216T131 102T220 22T348
-8Q422 -8 487 20T604 97T690 212T736 350Q746 420 733 484T686 598T597 678T469 708Q394 708 329 680T212 603T126 488T81 350ZM638 924L631 932L438 774L444 769L638 924Z" />
<glyph unicode="&#xd4;" horiz-adv-x="751" d="M92 350Q103 421 136 483T218 594T331 669T468 697Q540 697 593 668T678 590T722 479T725 350Q713 279 681 217T598 106T485 31T349 3Q277 3 224 32T139 110T94 221T92 350ZM81 350Q71 280 84 216T131 102T220 22T348
-8Q422 -8 487 20T604 97T690 212T736 350Q746 420 733 484T686 598T597 678T469 708Q394 708 329 680T212 603T126 488T81 350ZM503 903L629 768L637 775L505 915L325 776L331 769L503 903Z" />
<glyph unicode="&#xd5;" horiz-adv-x="751" d="M92 350Q103 421 136 483T218 594T331 669T468 697Q540 697 593 668T678 590T722 479T725 350Q713 279 681 217T598 106T485 31T349 3Q277 3 224 32T139 110T94 221T92 350ZM81 350Q71 280 84 216T131 102T220 22T348
-8Q422 -8 487 20T604 97T690 212T736 350Q746 420 733 484T686 598T597 678T469 708Q394 708 329 680T212 603T126 488T81 350ZM361 790L369 789Q374 801 381 812T401 831T433 839Q454 838 469 827T501 804T542 793Q558 793 571 799T594 818T615 845L607 848Q594
828 580 815T544 801Q526 800 513 807T488 823T463 839T432 847Q411 847 397 838T375 816T361 790Z" />
<glyph unicode="&#xd6;" horiz-adv-x="751" d="M92 350Q103 421 136 483T218 594T331 669T468 697Q540 697 593 668T678 590T722 479T725 350Q713 279 681 217T598 106T485 31T349 3Q277 3 224 32T139 110T94 221T92 350ZM81 350Q71 280 84 216T131 102T220 22T348
-8Q422 -8 487 20T604 97T690 212T736 350Q746 420 733 484T686 598T597 678T469 708Q394 708 329 680T212 603T126 488T81 350ZM583 809Q582 805 584 802T592 798Q596 798 600 801T604 809Q604 814 602 817T595 820Q591 820 587 817T583 809ZM369 809Q369 805
371 802T378 798Q382 798 386 801T391 809Q391 814 389 817T382 820Q377 820 373 817T369 809Z" />
<glyph unicode="&#xd7;" horiz-adv-x="560" d="M66 47L296 248L457 46L465 53L302 254L535 455L529 462L297 261L136 463L128 456L292 254L60 54L66 47Z" />
<glyph unicode="&#xd8;" horiz-adv-x="766" d="M92 350Q103 421 136 483T218 594T331 669T468 697Q540 697 593 668T678 590T722 479T725 350Q713 279 681 217T598 106T485 31T349 3Q277 3 224 32T139 110T94 221T92 350ZM81 350Q71 280 84 216T131 102T220 22T348
-8Q422 -8 487 20T604 97T690 212T736 350Q746 420 733 484T686 598T597 678T469 708Q394 708 329 680T212 603T126 488T81 350ZM789 733L30 -26L39 -32L799 726L789 733Z" />
<glyph unicode="&#xd9;" horiz-adv-x="558" d="M176 700L93 220Q87 174 92 133T115 60T167 10T252 -9Q302 -10 342 8T412 57T461 130T488 220L570 700H559L476 220Q466 159 437 110T361 31T252 2Q191 2 156 32T108 112T104 220L186 700H176ZM278 925L421 769L426
773L287 933L278 925Z" />
<glyph unicode="&#xda;" horiz-adv-x="558" d="M176 700L93 220Q87 174 92 133T115 60T167 10T252 -9Q302 -10 342 8T412 57T461 130T488 220L570 700H559L476 220Q466 159 437 110T361 31T252 2Q191 2 156 32T108 112T104 220L186 700H176ZM543 924L536 932L343
774L347 769L543 924Z" />
<glyph unicode="&#xdb;" horiz-adv-x="558" d="M176 700L93 220Q87 174 92 133T115 60T167 10T252 -9Q302 -10 342 8T412 57T461 130T488 220L570 700H559L476 220Q466 159 437 110T361 31T252 2Q191 2 156 32T108 112T104 220L186 700H176ZM407 903L533 768L541
775L409 915L229 776L235 769L407 903Z" />
<glyph unicode="&#xdc;" horiz-adv-x="558" d="M176 700L93 220Q87 174 92 133T115 60T167 10T252 -9Q302 -10 342 8T412 57T461 130T488 220L570 700H559L476 220Q466 159 437 110T361 31T252 2Q191 2 156 32T108 112T104 220L186 700H176ZM462 779Q462 775 464
772T471 768Q475 768 479 771T484 779Q484 784 482 787T475 790Q470 790 466 787T462 779ZM287 779Q287 775 289 772T297 768Q301 768 305 771T309 779Q309 784 307 787T300 790Q295 790 291 787T287 779Z" />
<glyph unicode="&#xdd;" horiz-adv-x="492" d="M529 924L522 932L329 774L333 769L529 924ZM558 699L261 282L120 700H107L255 267L208 0H219L265 267L571 699H558Z" />
<glyph unicode="&#xde;" horiz-adv-x="504" d="M171 700L50 0H60L181 700H171ZM148 550H300Q360 549 405 524T473 454T486 350Q476 292 439 248T347 178T231 150H80L78 140H230Q296 141 353 167T448 240T497 350Q507 412 484 458T413 532T301 560H150L148 550Z" />
<glyph unicode="&#xdf;" horiz-adv-x="530" d="M285 -10Q329 -10 366 9T431 61T475 138T491 232Q491 274 480 300T451 341T413 365T376 381T347 399T335 429Q335 449 351 463T391 493T439 529T479 579T496 653Q496 696 477 727T426 776T353 794Q302 794 259 765T188
686T149 578L50 0H60L160 580Q169 635 196 681T264 756T353 784Q391 784 421 768T468 722T486 653Q486 611 470 583T430 534T382 498T342 467T325 430Q325 408 336 396T365 375T403 359T440 336T469 296T481 230Q481 168 455 116T385 32T285 0Q258 0 231 6T181
24T142 52L135 46Q151 29 175 17T228 -3T285 -10Z" />
<glyph unicode="&#xe0;" horiz-adv-x="422" d="M45 135Q52 179 81 209T151 255T234 271Q276 271 307 258T359 226L361 235Q348 247 331 257T290 274T235 281Q190 281 147 264T73 215T35 136Q28 91 43 59T88 9T159 -9Q210 -9 249 15T314 77T351 159H346Q335 118
309 82T245 23T160 1Q123 1 95 17T52 63T45 135ZM122 396Q143 412 167 427T219 451T278 460Q319 459 341 440T370 389T373 320L317 0H327L382 320Q387 360 379 393T347 448T279 470Q228 470 188 449T116 404L122 396ZM188 707L330 551L336 555L197 715L188 707Z"
/>
<glyph unicode="&#xe1;" horiz-adv-x="422" d="M45 135Q52 179 81 209T151 255T234 271Q276 271 307 258T359 226L361 235Q348 247 331 257T290 274T235 281Q190 281 147 264T73 215T35 136Q28 91 43 59T88 9T159 -9Q210 -9 249 15T314 77T351 159H346Q335 118
309 82T245 23T160 1Q123 1 95 17T52 63T45 135ZM122 396Q143 412 167 427T219 451T278 460Q319 459 341 440T370 389T373 320L317 0H327L382 320Q387 360 379 393T347 448T279 470Q228 470 188 449T116 404L122 396ZM432 706L425 714L232 556L238 551L432 706Z"
/>
<glyph unicode="&#xe2;" horiz-adv-x="422" d="M45 135Q52 179 81 209T151 255T234 271Q276 271 307 258T359 226L361 235Q348 247 331 257T290 274T235 281Q190 281 147 264T73 215T35 136Q28 91 43 59T88 9T159 -9Q210 -9 249 15T314 77T351 159H346Q335 118
309 82T245 23T160 1Q123 1 95 17T52 63T45 135ZM122 396Q143 412 167 427T219 451T278 460Q319 459 341 440T370 389T373 320L317 0H327L382 320Q387 360 379 393T347 448T279 470Q228 470 188 449T116 404L122 396ZM315 675L441 540L448 547L316 687L137 548L143
541L315 675Z" />
<glyph unicode="&#xe3;" horiz-adv-x="422" d="M45 135Q52 179 81 209T151 255T234 271Q276 271 307 258T359 226L361 235Q348 247 331 257T290 274T235 281Q190 281 147 264T73 215T35 136Q28 91 43 59T88 9T159 -9Q210 -9 249 15T314 77T351 159H346Q335 118
309 82T245 23T160 1Q123 1 95 17T52 63T45 135ZM122 396Q143 412 167 427T219 451T278 460Q319 459 341 440T370 389T373 320L317 0H327L382 320Q387 360 379 393T347 448T279 470Q228 470 188 449T116 404L122 396ZM167 582L175 581Q179 593 187 604T207 623T239
631Q259 630 274 619T307 596T347 585Q363 585 376 591T400 610T420 637L412 640Q399 620 385 607T349 593Q331 592 318 599T293 615T268 631T237 639Q216 639 202 631T180 609T167 582Z" />
<glyph unicode="&#xe4;" horiz-adv-x="422" d="M45 135Q52 179 81 209T151 255T234 271Q276 271 307 258T359 226L361 235Q348 247 331 257T290 274T235 281Q190 281 147 264T73 215T35 136Q28 91 43 59T88 9T159 -9Q210 -9 249 15T314 77T351 159H346Q335 118
309 82T245 23T160 1Q123 1 95 17T52 63T45 135ZM122 396Q143 412 167 427T219 451T278 460Q319 459 341 440T370 389T373 320L317 0H327L382 320Q387 360 379 393T347 448T279 470Q228 470 188 449T116 404L122 396ZM352 561Q352 557 354 554T361 550Q365 550
369 553T374 561Q374 566 372 569T365 572Q360 572 356 569T352 561ZM197 561Q196 557 198 554T206 550Q210 550 214 553T218 561Q218 566 216 569T209 572Q205 572 201 569T197 561Z" />
<glyph unicode="&#xe5;" horiz-adv-x="422" d="M45 135Q52 179 81 209T151 255T234 271Q276 271 307 258T359 226L361 235Q348 247 331 257T290 274T235 281Q190 281 147 264T73 215T35 136Q28 91 43 59T88 9T159 -9Q210 -9 249 15T314 77T351 159H346Q335 118
309 82T245 23T160 1Q123 1 95 17T52 63T45 135ZM122 396Q143 412 167 427T219 451T278 460Q319 459 341 440T370 389T373 320L317 0H327L382 320Q387 360 379 393T347 448T279 470Q228 470 188 449T116 404L122 396ZM207 631Q203 604 213 581T243 545T290 531Q316
530 341 543T384 579T406 630Q410 657 400 679T370 715T324 730Q297 730 272 717T229 681T207 631ZM217 630Q221 655 237 675T275 708T323 720Q359 719 380 693T396 630Q392 606 376 585T338 552T291 541Q255 541 234 567T217 630Z" />
<glyph unicode="&#xe6;" horiz-adv-x="825" d="M158 -10Q230 -10 283 39T361 178H356Q354 88 399 39T529 -10Q597 -10 658 21T762 107L755 113Q711 59 651 30T528 0Q468 0 429 28T373 108T370 230L364 228H787Q790 238 791 242T795 253Q805 314 785 363T723 441T624
470Q570 470 519 446T430 379T372 282H376Q397 377 374 423T282 470Q238 470 193 453T110 403L115 395Q140 416 167 430T224 452T280 460Q339 460 362 424T374 320L359 233L364 234Q347 256 314 268T237 281Q182 281 137 263T64 211T27 132Q17 71 53 31T158 -10ZM158
0Q95 0 62 37T37 132Q44 173 71 204T142 253T237 271Q279 271 311 259T361 224L359 230L354 179L358 198Q335 104 282 52T158 0ZM370 236Q380 298 417 349T508 430T621 460Q676 460 716 432T774 357T783 252Q782 246 781 242T778 234L786 238H366L370 236Z" />
<glyph unicode="&#xe7;" horiz-adv-x="473" d="M61 230Q71 293 107 345T198 428T317 460Q348 460 375 452T423 429T457 400L459 412Q438 435 401 452T318 470Q250 470 194 438T99 351T51 230Q41 168 61 113T125 25T237 -9Q286 -9 328 8T397 48L399 60Q381 46 356
33T301 10T238 1Q175 1 132 33T71 118T61 230ZM232 -3L163 -90Q181 -80 202 -72T247 -65Q262 -66 274 -74T292 -96T297 -129Q293 -155 276 -173T235 -202T188 -212Q165 -212 148 -204T114 -179L106 -185Q124 -203 142 -212T187 -222Q214 -223 240 -212T284 -179T307
-129Q309 -108 302 -92T280 -66T248 -55Q226 -54 210 -61T176 -78L244 -3H232Z" />
<glyph unicode="&#xe8;" horiz-adv-x="487" d="M69 228H460Q461 234 462 241T466 254Q473 309 454 358T396 438T302 470Q252 470 210 448T135 389T84 308Q76 290 71 271T62 232Q55 172 71 117T125 27T225 -9Q278 -10 317 7T384 52T436 106L429 113Q406 86 378
60T313 17T225 1Q167 1 131 35T81 122T72 233V233Q81 295 114 346T196 429T302 459Q359 459 396 426T448 342T452 238H70L69 228ZM175 686L319 530L325 534L183 694L175 686Z" />
<glyph unicode="&#xe9;" horiz-adv-x="487" d="M69 228H460Q461 234 462 241T466 254Q473 309 454 358T396 438T302 470Q252 470 210 448T135 389T84 308Q76 290 71 271T62 232Q55 172 71 117T125 27T225 -9Q278 -10 317 7T384 52T436 106L429 113Q406 86 378
60T313 17T225 1Q167 1 131 35T81 122T72 233V233Q81 295 114 346T196 429T302 459Q359 459 396 426T448 342T452 238H70L69 228ZM487 685L480 693L290 535L295 530L487 685Z" />
<glyph unicode="&#xea;" horiz-adv-x="487" d="M69 228H460Q461 234 462 241T466 254Q473 309 454 358T396 438T302 470Q252 470 210 448T135 389T84 308Q76 290 71 271T62 232Q55 172 71 117T125 27T225 -9Q278 -10 317 7T384 52T436 106L429 113Q406 86 378
60T313 17T225 1Q167 1 131 35T81 122T72 233V233Q81 295 114 346T196 429T302 459Q359 459 396 426T448 342T452 238H70L69 228ZM330 664L456 530L463 537L331 676L152 538L158 531L330 664Z" />
<glyph unicode="&#xeb;" horiz-adv-x="487" d="M69 228H460Q461 234 462 241T466 254Q473 309 454 358T396 438T302 470Q252 470 210 448T135 389T84 308Q76 290 71 271T62 232Q55 172 71 117T125 27T225 -9Q278 -10 317 7T384 52T436 106L429 113Q406 86 378
60T313 17T225 1Q167 1 131 35T81 122T72 233V233Q81 295 114 346T196 429T302 459Q359 459 396 426T448 342T452 238H70L69 228ZM394 541Q394 536 396 533T403 530Q407 530 411 533T416 541Q416 545 413 548T406 552Q402 552 399 549T394 541ZM200 541Q200 536
202 533T209 530Q213 530 217 533T222 541Q222 545 219 548T212 552Q208 552 205 549T200 541Z" />
<glyph unicode="&#xec;" horiz-adv-x="184" d="M140 460L60 0H70L149 460H140ZM32 687L173 531L179 535L41 695L32 687Z" />
<glyph unicode="&#xed;" horiz-adv-x="184" d="M140 460L60 0H70L149 460H140ZM334 686L327 694L134 536L139 531L334 686Z" />
<glyph unicode="&#xee;" horiz-adv-x="184" d="M140 460L60 0H70L149 460H140ZM179 665L305 530L313 537L181 677L1 538L7 531L179 665Z" />
<glyph unicode="&#xef;" horiz-adv-x="184" d="M140 460L60 0H70L149 460H140ZM225 541Q224 537 226 534T234 530Q238 530 242 533T246 541Q246 546 244 549T237 552Q232 552 229 549T225 541ZM69 541Q69 537 71 534T78 530Q82 530 86 533T91 541Q91 546 89 549T82
552Q77 552 73 549T69 541Z" />
<glyph unicode="&#xf0;" horiz-adv-x="536" d="M237 -10Q286 -10 333 11T417 70T477 154T499 256Q499 278 495 299T480 349T445 422T385 533T293 700L285 694Q324 625 350 579T394 498T429 430T465 354L466 355Q440 396 398 416T300 437Q254 437 210 416T130 359T73
276T52 180Q52 121 74 79T137 13T237 -10ZM238 0Q185 0 145 22T84 85T62 180Q62 227 82 271T136 350T212 406T299 427Q362 427 404 403T467 339T489 255Q489 206 467 160T409 78T329 21T238 0ZM235 520L502 630L499 640L233 530L235 520Z" />
<glyph unicode="&#xf1;" horiz-adv-x="460" d="M145 460H135L55 0H65L145 460ZM397 320L341 0H351L407 320Q412 360 405 393T373 448T302 470Q251 470 211 443T144 373T107 281H112Q122 325 148 366T214 433T302 460Q345 459 367 440T395 388T397 320ZM175 552L184
551Q188 563 195 574T215 593T247 601Q268 600 283 589T316 566T356 555Q372 555 385 561T409 580T430 607L421 610Q408 590 394 577T358 563Q340 562 327 569T302 585T277 601T245 609Q225 609 211 601T189 579T175 552Z" />
<glyph unicode="&#xf2;" horiz-adv-x="539" d="M56 230Q46 168 66 113T130 25T242 -9Q309 -10 365 22T460 110T509 230Q518 293 498 347T433 435T322 470Q255 470 198 438T104 351T56 230ZM66 230Q76 293 112 345T203 428T323 460Q385 459 427 427T489 343T499
230Q489 167 452 115T361 32T243 1Q179 1 137 33T76 117T66 230ZM228 687L371 531L375 535L237 695L228 687Z" />
<glyph unicode="&#xf3;" horiz-adv-x="539" d="M56 230Q46 168 66 113T130 25T242 -9Q309 -10 365 22T460 110T509 230Q518 293 498 347T433 435T322 470Q255 470 198 438T104 351T56 230ZM66 230Q76 293 112 345T203 428T323 460Q385 459 427 427T489 343T499
230Q489 167 452 115T361 32T243 1Q179 1 137 33T76 117T66 230ZM493 686L486 694L293 536L296 531L493 686Z" />
<glyph unicode="&#xf4;" horiz-adv-x="539" d="M56 230Q46 168 66 113T130 25T242 -9Q309 -10 365 22T460 110T509 230Q518 293 498 347T433 435T322 470Q255 470 198 438T104 351T56 230ZM66 230Q76 293 112 345T203 428T323 460Q385 459 427 427T489 343T499
230Q489 167 452 115T361 32T243 1Q179 1 137 33T76 117T66 230ZM360 685L486 550L494 557L362 697L182 558L188 551L360 685Z" />
<glyph unicode="&#xf5;" horiz-adv-x="539" d="M56 230Q46 168 66 113T130 25T242 -9Q309 -10 365 22T460 110T509 230Q518 293 498 347T433 435T322 470Q255 470 198 438T104 351T56 230ZM66 230Q76 293 112 345T203 428T322 460Q385 459 427 427T489 343T499
230Q489 167 452 115T361 32T242 1Q179 1 137 33T76 117T66 230ZM214 552L224 551Q228 563 235 574T255 592T286 601Q307 601 323 590T356 567T396 555Q412 555 425 561T449 580T469 607L460 610Q447 590 433 577T397 563Q379 562 366 569T341 585T316 602T284
609Q269 609 251 600T222 578T214 552Z" />
<glyph unicode="&#xf6;" horiz-adv-x="539" d="M56 230Q46 168 66 113T130 25T242 -9Q309 -10 365 22T460 110T509 230Q518 293 498 347T433 435T322 470Q255 470 198 438T104 351T56 230ZM66 230Q76 293 112 345T203 428T323 460Q385 459 427 427T489 343T499
230Q489 167 452 115T361 32T243 1Q179 1 137 33T76 117T66 230ZM425 561Q424 557 427 554T434 550Q438 550 442 553T446 561Q446 566 444 569T437 572Q433 572 429 569T425 561ZM231 561Q230 557 232 554T240 550Q244 550 248 553T252 561Q252 566 250 569T243
572Q239 572 235 569T231 561Z" />
<glyph unicode="&#xf7;" horiz-adv-x="604" d="M340 452Q340 448 341 446T344 442T349 440Q352 440 354 441T359 445T362 451Q362 454 361 456T358 460T353 462Q350 462 347 461T342 457T340 452ZM268 32Q268 28 269 26T272 22T278 20Q280 20 283 21T288 25T290
31Q290 34 289 36T286 40T281 42Q278 42 275 41T270 37T268 32ZM71 235H557L558 245H73L71 235Z" />
<glyph unicode="&#xf8;" horiz-adv-x="529" d="M56 230Q46 168 66 113T130 25T242 -9Q309 -10 365 22T460 110T509 230Q518 293 498 347T433 435T322 470Q255 470 198 438T104 351T56 230ZM66 230Q76 293 112 345T203 428T323 460Q385 459 427 427T489 343T499
230Q489 167 452 115T361 32T243 1Q179 1 137 33T76 117T66 230ZM502 493L33 -30L41 -36L510 486L502 493Z" />
<glyph unicode="&#xf9;" horiz-adv-x="460" d="M341 0H351L431 460H421L341 0ZM91 150L145 460H135L81 150Q75 108 81 72T112 13T183 -9Q234 -10 274 16T341 86T379 179H373Q363 135 337 94T271 26T184 1Q140 1 118 22T91 77T91 150ZM171 697L313 541L319 545L180
705L171 697Z" />
<glyph unicode="&#xfa;" horiz-adv-x="460" d="M341 0H351L431 460H421L341 0ZM91 150L145 460H135L81 150Q75 108 81 72T112 13T183 -9Q234 -10 274 16T341 86T379 179H373Q363 135 337 94T271 26T184 1Q140 1 118 22T91 77T91 150ZM474 696L467 704L274 546L279
541L474 696Z" />
<glyph unicode="&#xfb;" horiz-adv-x="460" d="M341 0H351L431 460H421L341 0ZM91 150L145 460H135L81 150Q75 108 81 72T112 13T183 -9Q234 -10 274 16T341 86T379 179H373Q363 135 337 94T271 26T184 1Q140 1 118 22T91 77T91 150ZM320 675L444 540L453 547L321
687L142 548L147 541L320 675Z" />
<glyph unicode="&#xfc;" horiz-adv-x="460" d="M341 0H351L431 460H421L341 0ZM91 150L145 460H135L81 150Q75 108 81 72T112 13T183 -9Q234 -10 274 16T341 86T379 179H373Q363 135 337 94T271 26T184 1Q140 1 118 22T91 77T91 150ZM366 562Q365 557 368 554T376
550Q380 550 383 553T387 561Q387 566 385 569T379 572Q375 572 371 569T366 562ZM210 562Q210 557 213 554T221 550Q225 550 228 553T232 561Q232 566 230 569T224 572Q219 572 215 569T210 562Z" />
<glyph unicode="&#xfd;" horiz-adv-x="412" d="M455 460H444L180 21L191 20L73 460H61L181 21L36 -219H47L455 460ZM448 686L441 694L248 536L253 531L448 686Z" />
<glyph unicode="&#xfe;" horiz-adv-x="525" d="M22 -219L194 780H184L13 -219H22ZM494 230Q503 292 487 347T430 436T327 470Q280 469 241 448T171 393T121 316T95 230Q89 190 94 148T118 71T168 13T247 -9Q310 -10 362 22T449 109T494 230ZM484 230Q475 167 441
115T356 31T244 1Q201 1 171 22T124 78T100 152T100 230Q106 271 125 312T175 386T243 439T324 460Q385 460 423 428T476 343T484 230Z" />
<glyph unicode="&#xff;" horiz-adv-x="412" d="M455 460H444L180 21L191 20L73 460H61L181 21L36 -219H47L455 460ZM342 561Q342 557 344 554T351 550Q355 550 359 553T364 561Q364 565 361 568T354 572Q349 572 346 569T342 561ZM187 561Q187 557 189 554T195
550Q199 550 203 553T209 561Q209 565 206 568T199 572Q194 572 191 569T187 561Z" />
<glyph unicode="&#x2013;" horiz-adv-x="718" d="M86 265H669L670 275H88L86 265Z" />
<glyph unicode="&#x2014;" horiz-adv-x="863" d="M86 265H814L816 275H88L86 265Z" />
<glyph unicode="&#x2018;" horiz-adv-x="218" d="M123 471L254 699H244L110 471H123Z" />
<glyph unicode="&#x2019;" horiz-adv-x="237" d="M261 699L130 471H140L273 699H261Z" />
<glyph unicode="&#x201a;" horiz-adv-x="237" d="M136 79L5 -149H15L148 79H136Z" />
<glyph unicode="&#x201c;" horiz-adv-x="373" d="M142 471L273 699H263L130 471H142ZM278 471L409 699H399L266 471H278Z" />
<glyph unicode="&#x201d;" horiz-adv-x="373" d="M242 699L110 471H121L254 699H242ZM378 699L246 471H256L390 699H378Z" />
<glyph unicode="&#x201e;" horiz-adv-x="373" d="M136 79L4 -149H15L148 79H136ZM272 79L140 -149H150L284 79H272Z" />
<glyph unicode="&#x2022;" horiz-adv-x="291" d="M153 377Q153 373 154 371T158 367T164 365Q167 365 169 366T173 370T175 376Q175 379 173 381T169 385T164 387Q161 387 159 386T155 382T153 377Z" />
<glyph unicode="&#x2039;" horiz-adv-x="315" d="M65 255L304 482L298 489L55 256L218 20L225 27L65 255Z" />
<glyph unicode="&#x203a;" horiz-adv-x="339" d="M308 255L69 28L75 21L318 254L155 490L147 483L308 255Z" />
</font>
</defs>
</svg>
